<mxfile host="app.diagrams.net" modified="2021-05-20T15:07:12.614Z" agent="5.0 (Windows NT 10.0; Win64; x64) AppleWebKit/537.36 (KHTML, like Gecko) Chrome/90.0.4430.212 Safari/537.36 Edg/90.0.818.62" etag="xpX75-Nc4GzEnLSjKe0q" version="14.6.13" type="github">
  <diagram name="Page-1" id="bfe91b75-5d2c-26a0-9c1d-138518896778">
    <mxGraphModel dx="2367" dy="1203" grid="1" gridSize="10" guides="1" tooltips="1" connect="1" arrows="1" fold="1" page="1" pageScale="1" pageWidth="1100" pageHeight="850" background="#ffffff" math="0" shadow="0">
      <root>
        <mxCell id="0" />
        <mxCell id="1" parent="0" />
        <mxCell id="7c3789c024ecab99-82" value="ALMOXARIFADO&lt;br&gt;" style="rounded=1;whiteSpace=wrap;html=1;shadow=0;comic=0;strokeColor=#036897;strokeWidth=2;fillColor=none;fontFamily=Verdana;fontSize=28;fontColor=#6881B3;align=center;arcSize=11;verticalAlign=top;" parent="1" vertex="1">
          <mxGeometry x="78" y="1355" width="1065" height="420" as="geometry" />
        </mxCell>
        <mxCell id="7c3789c024ecab99-81" value="ENGENHARIA" style="rounded=1;whiteSpace=wrap;html=1;shadow=0;comic=0;strokeColor=#036897;strokeWidth=2;fillColor=none;fontFamily=Verdana;fontSize=28;fontColor=#6881B3;align=center;arcSize=11;verticalAlign=top;" parent="1" vertex="1">
          <mxGeometry x="75" y="900" width="1065" height="420" as="geometry" />
        </mxCell>
        <mxCell id="7c3789c024ecab99-79" value="GALPÃƒO RACK&lt;br&gt;" style="rounded=1;whiteSpace=wrap;html=1;shadow=0;comic=0;strokeColor=#036897;strokeWidth=2;fillColor=none;fontFamily=Verdana;fontSize=28;fontColor=#6881B3;align=center;arcSize=11;verticalAlign=top;" parent="1" vertex="1">
          <mxGeometry x="78" y="462" width="1065" height="420" as="geometry" />
        </mxCell>
        <mxCell id="7c3789c024ecab99-78" value="COMERCIAL / ADMINISTRATIVO / RH" style="rounded=1;whiteSpace=wrap;html=1;shadow=0;comic=0;strokeColor=#036897;strokeWidth=2;fillColor=none;fontFamily=Verdana;fontSize=28;fontColor=#6881B3;align=center;arcSize=11;verticalAlign=top;" parent="1" vertex="1">
          <mxGeometry x="75" y="20" width="1065" height="420" as="geometry" />
        </mxCell>
        <mxCell id="7c3789c024ecab99-55" style="edgeStyle=none;html=1;labelBackgroundColor=none;endArrow=none;endFill=0;strokeWidth=2;fontFamily=Verdana;fontSize=28;fontColor=#6881B3;startArrow=none;" parent="1" source="7-8rVvSdNKjw__y4Cbuu-12" target="7c3789c024ecab99-54" edge="1">
          <mxGeometry relative="1" as="geometry">
            <mxPoint x="1660" y="837.0000000000002" as="targetPoint" />
            <mxPoint x="1383.8999999999996" y="893.28" as="sourcePoint" />
          </mxGeometry>
        </mxCell>
        <mxCell id="7c3789c024ecab99-4" value="" style="fontColor=#0066CC;verticalAlign=top;verticalLabelPosition=bottom;labelPosition=center;align=center;html=1;fillColor=#CCCCCC;strokeColor=#6881B3;gradientColor=none;gradientDirection=north;strokeWidth=2;shape=mxgraph.networks.pc;rounded=0;shadow=0;comic=0;" parent="1" vertex="1">
          <mxGeometry x="510.0000000000003" y="310" width="100" height="70" as="geometry" />
        </mxCell>
        <mxCell id="7c3789c024ecab99-5" value="" style="fontColor=#0066CC;verticalAlign=top;verticalLabelPosition=bottom;labelPosition=center;align=center;html=1;fillColor=#CCCCCC;strokeColor=#6881B3;gradientColor=none;gradientDirection=north;strokeWidth=2;shape=mxgraph.networks.pc;rounded=0;shadow=0;comic=0;" parent="1" vertex="1">
          <mxGeometry x="640.0000000000002" y="310" width="100" height="70" as="geometry" />
        </mxCell>
        <mxCell id="7c3789c024ecab99-6" value="" style="fontColor=#0066CC;verticalAlign=top;verticalLabelPosition=bottom;labelPosition=center;align=center;html=1;fillColor=#CCCCCC;strokeColor=#6881B3;gradientColor=none;gradientDirection=north;strokeWidth=2;shape=mxgraph.networks.printer;rounded=0;shadow=0;comic=0;" parent="1" vertex="1">
          <mxGeometry x="770.0000000000002" y="295" width="100" height="100" as="geometry" />
        </mxCell>
        <mxCell id="7c3789c024ecab99-17" style="edgeStyle=none;html=1;labelBackgroundColor=none;endArrow=none;endFill=0;strokeWidth=2;fontFamily=Verdana;fontSize=15;fontColor=#036897;" parent="1" target="7-8rVvSdNKjw__y4Cbuu-12" edge="1">
          <mxGeometry relative="1" as="geometry">
            <mxPoint x="1360" y="240" as="sourcePoint" />
            <mxPoint x="743.2876712328766" y="205" as="targetPoint" />
          </mxGeometry>
        </mxCell>
        <mxCell id="7c3789c024ecab99-12" value="" style="fontColor=#0066CC;verticalAlign=top;verticalLabelPosition=bottom;labelPosition=center;align=center;html=1;fillColor=#CCCCCC;strokeColor=#6881B3;gradientColor=none;gradientDirection=north;strokeWidth=2;shape=mxgraph.networks.mobile;rounded=0;shadow=0;comic=0;" parent="1" vertex="1">
          <mxGeometry x="440" y="160" width="50" height="80" as="geometry" />
        </mxCell>
        <mxCell id="7c3789c024ecab99-37" value="" style="fontColor=#0066CC;verticalAlign=top;verticalLabelPosition=bottom;labelPosition=center;align=center;html=1;fillColor=#CCCCCC;strokeColor=#6881B3;gradientColor=none;gradientDirection=north;strokeWidth=2;shape=mxgraph.networks.pc;rounded=0;shadow=0;comic=0;" parent="1" vertex="1">
          <mxGeometry x="445.0000000000002" y="1199.4117647058824" width="100" height="70" as="geometry" />
        </mxCell>
        <mxCell id="7c3789c024ecab99-39" value="" style="fontColor=#0066CC;verticalAlign=top;verticalLabelPosition=bottom;labelPosition=center;align=center;html=1;fillColor=#CCCCCC;strokeColor=#6881B3;gradientColor=none;gradientDirection=north;strokeWidth=2;shape=mxgraph.networks.pc;rounded=0;shadow=0;comic=0;" parent="1" vertex="1">
          <mxGeometry x="580.0000000000002" y="1199.4117647058824" width="100" height="70" as="geometry" />
        </mxCell>
        <mxCell id="7c3789c024ecab99-41" value="" style="fontColor=#0066CC;verticalAlign=top;verticalLabelPosition=bottom;labelPosition=center;align=center;html=1;fillColor=#CCCCCC;strokeColor=#6881B3;gradientColor=none;gradientDirection=north;strokeWidth=2;shape=mxgraph.networks.pc;rounded=0;shadow=0;comic=0;" parent="1" vertex="1">
          <mxGeometry x="710.0000000000002" y="1199.4117647058824" width="100" height="70" as="geometry" />
        </mxCell>
        <mxCell id="7c3789c024ecab99-53" value="&lt;br&gt;Internet&lt;br&gt;Vivo 50 MB" style="html=1;fillColor=#CCCCCC;strokeColor=#6881B3;gradientColor=none;gradientDirection=north;strokeWidth=2;shape=mxgraph.networks.cloud;fontColor=#6881B3;rounded=0;shadow=0;comic=0;align=center;fontSize=28;" parent="1" vertex="1">
          <mxGeometry x="2370" y="340" width="330" height="140" as="geometry" />
        </mxCell>
        <mxCell id="7c3789c024ecab99-56" style="edgeStyle=none;html=1;labelBackgroundColor=none;endArrow=none;endFill=0;strokeWidth=2;fontFamily=Verdana;fontSize=28;fontColor=#6881B3;" parent="1" source="7c3789c024ecab99-54" target="7c3789c024ecab99-53" edge="1">
          <mxGeometry relative="1" as="geometry" />
        </mxCell>
        <mxCell id="7c3789c024ecab99-54" value="" style="fontColor=#0066CC;verticalAlign=top;verticalLabelPosition=bottom;labelPosition=center;align=center;html=1;fillColor=#CCCCCC;strokeColor=#6881B3;gradientColor=none;gradientDirection=north;strokeWidth=2;shape=mxgraph.networks.router;rounded=0;shadow=0;comic=0;" parent="1" vertex="1">
          <mxGeometry x="2120" y="612.5" width="100" height="30" as="geometry" />
        </mxCell>
        <mxCell id="7c3789c024ecab99-59" style="edgeStyle=none;html=1;labelBackgroundColor=none;endArrow=none;endFill=0;strokeWidth=2;fontFamily=Verdana;fontSize=28;fontColor=#6881B3;" parent="1" target="7c3789c024ecab99-54" edge="1" source="7-8rVvSdNKjw__y4Cbuu-5">
          <mxGeometry relative="1" as="geometry">
            <mxPoint x="1570" y="827" as="targetPoint" />
            <mxPoint x="1645" y="670.731707317073" as="sourcePoint" />
          </mxGeometry>
        </mxCell>
        <mxCell id="7c3789c024ecab99-65" value="" style="fontColor=#0066CC;verticalAlign=top;verticalLabelPosition=bottom;labelPosition=center;align=center;html=1;fillColor=#CCCCCC;strokeColor=#6881B3;gradientColor=none;gradientDirection=north;strokeWidth=2;shape=mxgraph.networks.pc;rounded=0;shadow=0;comic=0;" parent="1" vertex="1">
          <mxGeometry x="570.0000000000002" y="1530.0017647058824" width="100" height="70" as="geometry" />
        </mxCell>
        <mxCell id="7c3789c024ecab99-71" style="edgeStyle=none;html=1;labelBackgroundColor=none;endArrow=none;endFill=0;strokeWidth=2;fontFamily=Verdana;fontSize=15;fontColor=#036897;" parent="1" source="7c3789c024ecab99-65" edge="1">
          <mxGeometry relative="1" as="geometry">
            <mxPoint x="1220" y="920" as="targetPoint" />
            <Array as="points">
              <mxPoint x="1220" y="1565" />
            </Array>
          </mxGeometry>
        </mxCell>
        <mxCell id="7-8rVvSdNKjw__y4Cbuu-4" value="&lt;font style=&quot;font-size: 26px&quot;&gt;Roteador Vivo&lt;br&gt;IP: 192.168.1.3&lt;/font&gt;" style="text;html=1;resizable=0;autosize=1;align=center;verticalAlign=middle;points=[];fillColor=none;strokeColor=none;rounded=0;" parent="1" vertex="1">
          <mxGeometry x="2075" y="660" width="190" height="40" as="geometry" />
        </mxCell>
        <mxCell id="7-8rVvSdNKjw__y4Cbuu-5" value="" style="fontColor=#0066CC;verticalAlign=top;verticalLabelPosition=bottom;labelPosition=center;align=center;html=1;outlineConnect=0;fillColor=#CCCCCC;strokeColor=#6881B3;gradientColor=none;gradientDirection=north;strokeWidth=2;shape=mxgraph.networks.wireless_hub;" parent="1" vertex="1">
          <mxGeometry x="1730" y="430" width="100" height="85" as="geometry" />
        </mxCell>
        <mxCell id="7-8rVvSdNKjw__y4Cbuu-6" value="" style="fontColor=#0066CC;verticalAlign=top;verticalLabelPosition=bottom;labelPosition=center;align=center;html=1;outlineConnect=0;fillColor=#CCCCCC;strokeColor=#6881B3;gradientColor=none;gradientDirection=north;strokeWidth=2;shape=mxgraph.networks.mobile;" parent="1" vertex="1">
          <mxGeometry x="1750" y="300" width="30" height="58" as="geometry" />
        </mxCell>
        <mxCell id="7-8rVvSdNKjw__y4Cbuu-7" value="" style="fontColor=#0066CC;verticalAlign=top;verticalLabelPosition=bottom;labelPosition=center;align=center;html=1;outlineConnect=0;fillColor=#CCCCCC;strokeColor=#6881B3;gradientColor=none;gradientDirection=north;strokeWidth=2;shape=mxgraph.networks.mobile;" parent="1" vertex="1">
          <mxGeometry x="1820" y="300" width="30" height="58" as="geometry" />
        </mxCell>
        <mxCell id="7-8rVvSdNKjw__y4Cbuu-8" value="" style="fontColor=#0066CC;verticalAlign=top;verticalLabelPosition=bottom;labelPosition=center;align=center;html=1;outlineConnect=0;fillColor=#CCCCCC;strokeColor=#6881B3;gradientColor=none;gradientDirection=north;strokeWidth=2;shape=mxgraph.networks.mobile;" parent="1" vertex="1">
          <mxGeometry x="1880" y="300" width="30" height="58" as="geometry" />
        </mxCell>
        <mxCell id="7-8rVvSdNKjw__y4Cbuu-9" value="&lt;font style=&quot;font-size: 26px&quot;&gt;&lt;br&gt;Roteador AP&lt;br&gt;D-LINK DIR 809&lt;br&gt;IP: ???.???.???.???&lt;br&gt;&lt;/font&gt;" style="text;html=1;resizable=0;autosize=1;align=center;verticalAlign=middle;points=[];fillColor=none;strokeColor=none;rounded=0;" parent="1" vertex="1">
          <mxGeometry x="1670" y="510" width="250" height="80" as="geometry" />
        </mxCell>
        <mxCell id="7-8rVvSdNKjw__y4Cbuu-10" value="&lt;font style=&quot;font-size: 26px&quot;&gt;Wifi Visitantes&lt;br&gt;&lt;/font&gt;" style="text;html=1;resizable=0;autosize=1;align=center;verticalAlign=middle;points=[];fillColor=none;strokeColor=none;rounded=0;" parent="1" vertex="1">
          <mxGeometry x="1745" y="250" width="180" height="20" as="geometry" />
        </mxCell>
        <mxCell id="7-8rVvSdNKjw__y4Cbuu-11" value="" style="points=[[0.005,0.09,0],[0.08,0,0],[0.76,0.25,0],[1,0.92,0],[0.91,0.995,0],[0.57,0.995,0],[0.045,0.955,0],[0.005,0.43,0]];verticalLabelPosition=bottom;html=1;verticalAlign=top;aspect=fixed;align=center;pointerEvents=1;shape=mxgraph.cisco19.3g_4g_indicator;fillColor=#005073;strokeColor=none;" parent="1" vertex="1">
          <mxGeometry x="1810" y="370" width="50" height="50" as="geometry" />
        </mxCell>
        <mxCell id="7-8rVvSdNKjw__y4Cbuu-12" value="" style="html=1;verticalLabelPosition=bottom;verticalAlign=top;outlineConnect=0;shadow=0;dashed=0;shape=mxgraph.rack.hpe_aruba.switches.jl665a_aruba_6300f_48_port_1gbe_class_4_poe_and_4_port_sfp56_switch;" parent="1" vertex="1">
          <mxGeometry x="1250" y="890" width="240" height="20" as="geometry" />
        </mxCell>
        <mxCell id="YF6pKjscoDSc8qck96Aq-1" value="" style="endArrow=none;html=1;" edge="1" parent="1" source="YF6pKjscoDSc8qck96Aq-2" target="7-8rVvSdNKjw__y4Cbuu-12">
          <mxGeometry width="50" height="50" relative="1" as="geometry">
            <mxPoint x="1680" y="1150" as="sourcePoint" />
            <mxPoint x="1590" y="1180" as="targetPoint" />
          </mxGeometry>
        </mxCell>
        <mxCell id="YF6pKjscoDSc8qck96Aq-2" value="" style="fontColor=#0066CC;verticalAlign=top;verticalLabelPosition=bottom;labelPosition=center;align=center;html=1;outlineConnect=0;fillColor=#CCCCCC;strokeColor=#6881B3;gradientColor=none;gradientDirection=north;strokeWidth=2;shape=mxgraph.networks.server;" vertex="1" parent="1">
          <mxGeometry x="1610" y="1130" width="90" height="100" as="geometry" />
        </mxCell>
        <mxCell id="YF6pKjscoDSc8qck96Aq-3" value="&lt;font style=&quot;font-size: 26px&quot;&gt;Servidor Montado Hyper-v &lt;br&gt;RIELBLDSRV0003&lt;br&gt;IP: 192.168.1.132&lt;br&gt;&lt;/font&gt;" style="text;html=1;resizable=0;autosize=1;align=center;verticalAlign=middle;points=[];fillColor=none;strokeColor=none;rounded=0;" vertex="1" parent="1">
          <mxGeometry x="1510" y="1260" width="320" height="60" as="geometry" />
        </mxCell>
        <mxCell id="YF6pKjscoDSc8qck96Aq-6" value="" style="fontColor=#0066CC;verticalAlign=top;verticalLabelPosition=bottom;labelPosition=center;align=center;html=1;outlineConnect=0;fillColor=#CCCCCC;strokeColor=#6881B3;gradientColor=none;gradientDirection=north;strokeWidth=2;shape=mxgraph.networks.server;" vertex="1" parent="1">
          <mxGeometry x="1930" y="950.0000000000001" width="90" height="100" as="geometry" />
        </mxCell>
        <mxCell id="YF6pKjscoDSc8qck96Aq-7" value="" style="endArrow=none;html=1;" edge="1" parent="1" source="YF6pKjscoDSc8qck96Aq-6" target="7-8rVvSdNKjw__y4Cbuu-12">
          <mxGeometry width="50" height="50" relative="1" as="geometry">
            <mxPoint x="1434.1666666666665" y="1160" as="sourcePoint" />
            <mxPoint x="1500" y="900" as="targetPoint" />
          </mxGeometry>
        </mxCell>
        <mxCell id="YF6pKjscoDSc8qck96Aq-8" value="&lt;font style=&quot;font-size: 26px&quot;&gt;Servidor DELL POWEREDGE T410&lt;br&gt;SERVIDOR01&lt;br&gt;IP: 192.168.1.80&lt;br&gt;&lt;/font&gt;" style="text;html=1;resizable=0;autosize=1;align=center;verticalAlign=middle;points=[];fillColor=none;strokeColor=none;rounded=0;" vertex="1" parent="1">
          <mxGeometry x="1760" y="1084.41" width="430" height="60" as="geometry" />
        </mxCell>
        <mxCell id="7-8rVvSdNKjw__y4Cbuu-14" value="&lt;font style=&quot;font-size: 26px&quot;&gt;Switch D-LINK 48 Portas&lt;br&gt;DES-120-28&lt;br&gt;IP: 192.168.1.210&lt;br&gt;&lt;br&gt;&lt;/font&gt;" style="text;html=1;resizable=0;autosize=1;align=center;verticalAlign=middle;points=[];fillColor=none;strokeColor=none;rounded=0;" parent="1" vertex="1">
          <mxGeometry x="1240" y="940" width="300" height="80" as="geometry" />
        </mxCell>
        <mxCell id="YF6pKjscoDSc8qck96Aq-13" value="" style="fontColor=#0066CC;verticalAlign=top;verticalLabelPosition=bottom;labelPosition=center;align=center;html=1;fillColor=#CCCCCC;strokeColor=#6881B3;gradientColor=none;gradientDirection=north;strokeWidth=2;shape=mxgraph.networks.mobile;rounded=0;shadow=0;comic=0;" vertex="1" parent="1">
          <mxGeometry x="550" y="160" width="50" height="80" as="geometry" />
        </mxCell>
        <mxCell id="YF6pKjscoDSc8qck96Aq-14" value="" style="fontColor=#0066CC;verticalAlign=top;verticalLabelPosition=bottom;labelPosition=center;align=center;html=1;fillColor=#CCCCCC;strokeColor=#6881B3;gradientColor=none;gradientDirection=north;strokeWidth=2;shape=mxgraph.networks.mobile;rounded=0;shadow=0;comic=0;" vertex="1" parent="1">
          <mxGeometry x="650" y="160" width="50" height="80" as="geometry" />
        </mxCell>
        <mxCell id="YF6pKjscoDSc8qck96Aq-15" value="" style="fontColor=#0066CC;verticalAlign=top;verticalLabelPosition=bottom;labelPosition=center;align=center;html=1;outlineConnect=0;fillColor=#CCCCCC;strokeColor=#6881B3;gradientColor=none;gradientDirection=north;strokeWidth=2;shape=mxgraph.networks.laptop;" vertex="1" parent="1">
          <mxGeometry x="270" y="325" width="100" height="55" as="geometry" />
        </mxCell>
        <mxCell id="YF6pKjscoDSc8qck96Aq-16" value="" style="fontColor=#0066CC;verticalAlign=top;verticalLabelPosition=bottom;labelPosition=center;align=center;html=1;outlineConnect=0;fillColor=#CCCCCC;strokeColor=#6881B3;gradientColor=none;gradientDirection=north;strokeWidth=2;shape=mxgraph.networks.laptop;" vertex="1" parent="1">
          <mxGeometry x="150" y="325" width="100" height="55" as="geometry" />
        </mxCell>
        <mxCell id="YF6pKjscoDSc8qck96Aq-17" value="" style="points=[[0.005,0.09,0],[0.08,0,0],[0.76,0.25,0],[1,0.92,0],[0.91,0.995,0],[0.57,0.995,0],[0.045,0.955,0],[0.005,0.43,0]];verticalLabelPosition=bottom;html=1;verticalAlign=top;aspect=fixed;align=center;pointerEvents=1;shape=mxgraph.cisco19.3g_4g_indicator;fillColor=#005073;strokeColor=none;" vertex="1" parent="1">
          <mxGeometry x="250" y="250" width="50" height="50" as="geometry" />
        </mxCell>
        <mxCell id="YF6pKjscoDSc8qck96Aq-18" value="" style="points=[[0.005,0.09,0],[0.08,0,0],[0.76,0.25,0],[1,0.92,0],[0.91,0.995,0],[0.57,0.995,0],[0.045,0.955,0],[0.005,0.43,0]];verticalLabelPosition=bottom;html=1;verticalAlign=top;aspect=fixed;align=center;pointerEvents=1;shape=mxgraph.cisco19.3g_4g_indicator;fillColor=#005073;strokeColor=none;" vertex="1" parent="1">
          <mxGeometry x="730" y="120" width="50" height="50" as="geometry" />
        </mxCell>
        <mxCell id="YF6pKjscoDSc8qck96Aq-26" value="" style="endArrow=none;html=1;" edge="1" parent="1">
          <mxGeometry width="50" height="50" relative="1" as="geometry">
            <mxPoint x="1143" y="240" as="sourcePoint" />
            <mxPoint x="1360" y="240" as="targetPoint" />
          </mxGeometry>
        </mxCell>
        <mxCell id="YF6pKjscoDSc8qck96Aq-27" value="" style="html=1;verticalLabelPosition=bottom;verticalAlign=top;outlineConnect=0;shadow=0;dashed=0;shape=mxgraph.rack.hpe_aruba.switches.jl665a_aruba_6300f_48_port_1gbe_class_4_poe_and_4_port_sfp56_switch;" vertex="1" parent="1">
          <mxGeometry x="840" y="560" width="240" height="20" as="geometry" />
        </mxCell>
        <mxCell id="YF6pKjscoDSc8qck96Aq-28" value="&lt;font style=&quot;font-size: 26px&quot;&gt;Switch 3COM Baseline 2024&lt;br&gt;&lt;br&gt;&lt;br&gt;&lt;/font&gt;" style="text;html=1;resizable=0;autosize=1;align=center;verticalAlign=middle;points=[];fillColor=none;strokeColor=none;rounded=0;" vertex="1" parent="1">
          <mxGeometry x="800" y="600" width="350" height="60" as="geometry" />
        </mxCell>
        <mxCell id="YF6pKjscoDSc8qck96Aq-29" value="" style="endArrow=none;html=1;" edge="1" parent="1" source="7-8rVvSdNKjw__y4Cbuu-12" target="YF6pKjscoDSc8qck96Aq-27">
          <mxGeometry width="50" height="50" relative="1" as="geometry">
            <mxPoint x="1000" y="780" as="sourcePoint" />
            <mxPoint x="1050" y="730" as="targetPoint" />
            <Array as="points">
              <mxPoint x="1280" y="570" />
            </Array>
          </mxGeometry>
        </mxCell>
        <mxCell id="YF6pKjscoDSc8qck96Aq-30" value="" style="shape=mxgraph.rack.apc.apc_smart_ups_1000-3000_va_2u;html=1;labelPosition=right;align=left;spacingLeft=15;dashed=0;shadow=0;fillColor=#ffffff;" vertex="1" parent="1">
          <mxGeometry x="710" y="657" width="300" height="30" as="geometry" />
        </mxCell>
        <mxCell id="YF6pKjscoDSc8qck96Aq-31" value="&lt;font style=&quot;font-size: 26px&quot;&gt;Nobreak APC SMART-UPS RT3000&lt;br&gt;&lt;br&gt;&lt;/font&gt;" style="text;html=1;resizable=0;autosize=1;align=center;verticalAlign=middle;points=[];fillColor=none;strokeColor=none;rounded=0;" vertex="1" parent="1">
          <mxGeometry x="660" y="715" width="430" height="40" as="geometry" />
        </mxCell>
        <mxCell id="YF6pKjscoDSc8qck96Aq-32" value="" style="endArrow=none;html=1;exitX=0.6;exitY=-0.033;exitDx=0;exitDy=0;exitPerimeter=0;" edge="1" parent="1" source="YF6pKjscoDSc8qck96Aq-30" target="YF6pKjscoDSc8qck96Aq-27">
          <mxGeometry width="50" height="50" relative="1" as="geometry">
            <mxPoint x="1000" y="750" as="sourcePoint" />
            <mxPoint x="1050" y="700" as="targetPoint" />
          </mxGeometry>
        </mxCell>
        <mxCell id="YF6pKjscoDSc8qck96Aq-33" value="" style="shape=mxgraph.rack.ibm.ibm_x3530_m4;html=1;labelPosition=right;align=left;spacingLeft=15;dashed=0;shadow=0;fillColor=#ffffff;" vertex="1" parent="1">
          <mxGeometry x="200" y="630" width="330" height="40" as="geometry" />
        </mxCell>
        <mxCell id="YF6pKjscoDSc8qck96Aq-34" value="" style="shape=mxgraph.rack.ibm.ibm_x3530_m4;html=1;labelPosition=right;align=left;spacingLeft=15;dashed=0;shadow=0;fillColor=#ffffff;" vertex="1" parent="1">
          <mxGeometry x="200" y="700" width="330" height="40" as="geometry" />
        </mxCell>
        <mxCell id="YF6pKjscoDSc8qck96Aq-35" value="&lt;font style=&quot;font-size: 26px&quot;&gt;SERVIDORES IBM&lt;/font&gt;" style="text;html=1;resizable=0;autosize=1;align=center;verticalAlign=middle;points=[];fillColor=none;strokeColor=none;rounded=0;" vertex="1" parent="1">
          <mxGeometry x="220" y="765" width="240" height="20" as="geometry" />
        </mxCell>
        <mxCell id="YF6pKjscoDSc8qck96Aq-36" value="" style="endArrow=none;html=1;" edge="1" parent="1" source="YF6pKjscoDSc8qck96Aq-33" target="YF6pKjscoDSc8qck96Aq-27">
          <mxGeometry width="50" height="50" relative="1" as="geometry">
            <mxPoint x="1000" y="740" as="sourcePoint" />
            <mxPoint x="1050" y="690" as="targetPoint" />
          </mxGeometry>
        </mxCell>
        <mxCell id="YF6pKjscoDSc8qck96Aq-37" value="" style="endArrow=none;html=1;exitX=0.964;exitY=0.35;exitDx=0;exitDy=0;exitPerimeter=0;entryX=0.125;entryY=0.5;entryDx=0;entryDy=0;entryPerimeter=0;" edge="1" parent="1" source="YF6pKjscoDSc8qck96Aq-34" target="YF6pKjscoDSc8qck96Aq-27">
          <mxGeometry width="50" height="50" relative="1" as="geometry">
            <mxPoint x="523.75" y="640" as="sourcePoint" />
            <mxPoint x="895.625" y="590" as="targetPoint" />
          </mxGeometry>
        </mxCell>
        <mxCell id="YF6pKjscoDSc8qck96Aq-43" value="" style="fontColor=#0066CC;verticalAlign=top;verticalLabelPosition=bottom;labelPosition=center;align=center;html=1;fillColor=#CCCCCC;strokeColor=#6881B3;gradientColor=none;gradientDirection=north;strokeWidth=2;shape=mxgraph.networks.mobile;rounded=0;shadow=0;comic=0;" vertex="1" parent="1">
          <mxGeometry x="470" y="1004.41" width="50" height="80" as="geometry" />
        </mxCell>
        <mxCell id="YF6pKjscoDSc8qck96Aq-44" value="" style="fontColor=#0066CC;verticalAlign=top;verticalLabelPosition=bottom;labelPosition=center;align=center;html=1;fillColor=#CCCCCC;strokeColor=#6881B3;gradientColor=none;gradientDirection=north;strokeWidth=2;shape=mxgraph.networks.mobile;rounded=0;shadow=0;comic=0;" vertex="1" parent="1">
          <mxGeometry x="560" y="1004.41" width="50" height="80" as="geometry" />
        </mxCell>
        <mxCell id="YF6pKjscoDSc8qck96Aq-45" value="" style="fontColor=#0066CC;verticalAlign=top;verticalLabelPosition=bottom;labelPosition=center;align=center;html=1;fillColor=#CCCCCC;strokeColor=#6881B3;gradientColor=none;gradientDirection=north;strokeWidth=2;shape=mxgraph.networks.mobile;rounded=0;shadow=0;comic=0;" vertex="1" parent="1">
          <mxGeometry x="650" y="1000" width="50" height="80" as="geometry" />
        </mxCell>
        <mxCell id="YF6pKjscoDSc8qck96Aq-46" value="" style="points=[[0.005,0.09,0],[0.08,0,0],[0.76,0.25,0],[1,0.92,0],[0.91,0.995,0],[0.57,0.995,0],[0.045,0.955,0],[0.005,0.43,0]];verticalLabelPosition=bottom;html=1;verticalAlign=top;aspect=fixed;align=center;pointerEvents=1;shape=mxgraph.cisco19.3g_4g_indicator;fillColor=#005073;strokeColor=none;" vertex="1" parent="1">
          <mxGeometry x="710" y="980" width="50" height="50" as="geometry" />
        </mxCell>
        <mxCell id="YF6pKjscoDSc8qck96Aq-47" value="" style="fontColor=#0066CC;verticalAlign=top;verticalLabelPosition=bottom;labelPosition=center;align=center;html=1;outlineConnect=0;fillColor=#CCCCCC;strokeColor=#6881B3;gradientColor=none;gradientDirection=north;strokeWidth=2;shape=mxgraph.networks.laptop;" vertex="1" parent="1">
          <mxGeometry x="315" y="1214.4099999999999" width="100" height="55" as="geometry" />
        </mxCell>
        <mxCell id="YF6pKjscoDSc8qck96Aq-48" value="" style="fontColor=#0066CC;verticalAlign=top;verticalLabelPosition=bottom;labelPosition=center;align=center;html=1;outlineConnect=0;fillColor=#CCCCCC;strokeColor=#6881B3;gradientColor=none;gradientDirection=north;strokeWidth=2;shape=mxgraph.networks.laptop;" vertex="1" parent="1">
          <mxGeometry x="190" y="1214.4099999999999" width="100" height="55" as="geometry" />
        </mxCell>
        <mxCell id="YF6pKjscoDSc8qck96Aq-51" value="" style="html=1;verticalLabelPosition=bottom;verticalAlign=top;outlineConnect=0;shadow=0;dashed=0;shape=mxgraph.rack.hpe_aruba.switches.jl665a_aruba_6300f_48_port_1gbe_class_4_poe_and_4_port_sfp56_switch;" vertex="1" parent="1">
          <mxGeometry x="840" y="1010" width="240" height="20" as="geometry" />
        </mxCell>
        <mxCell id="YF6pKjscoDSc8qck96Aq-52" value="&lt;font style=&quot;font-size: 26px&quot;&gt;Switch D-LINK 48 Portas&lt;br&gt;DES-120-28&lt;br&gt;&lt;br&gt;&lt;/font&gt;" style="text;html=1;resizable=0;autosize=1;align=center;verticalAlign=middle;points=[];fillColor=none;strokeColor=none;rounded=0;" vertex="1" parent="1">
          <mxGeometry x="820" y="1050" width="300" height="60" as="geometry" />
        </mxCell>
        <mxCell id="YF6pKjscoDSc8qck96Aq-54" value="" style="endArrow=none;html=1;" edge="1" parent="1" source="YF6pKjscoDSc8qck96Aq-51" target="7-8rVvSdNKjw__y4Cbuu-12">
          <mxGeometry width="50" height="50" relative="1" as="geometry">
            <mxPoint x="1230" y="1020" as="sourcePoint" />
            <mxPoint x="1050" y="710" as="targetPoint" />
            <Array as="points">
              <mxPoint x="1180" y="1020" />
              <mxPoint x="1180" y="900" />
            </Array>
          </mxGeometry>
        </mxCell>
        <mxCell id="YF6pKjscoDSc8qck96Aq-55" value="" style="html=1;verticalLabelPosition=bottom;verticalAlign=top;outlineConnect=0;shadow=0;dashed=0;shape=mxgraph.rack.hpe_aruba.switches.jl665a_aruba_6300f_48_port_1gbe_class_4_poe_and_4_port_sfp56_switch;rotation=90;" vertex="1" parent="1">
          <mxGeometry x="900" y="1163.82" width="120" height="35.59" as="geometry" />
        </mxCell>
        <mxCell id="YF6pKjscoDSc8qck96Aq-56" value="&lt;font style=&quot;font-size: 26px&quot;&gt;Switch Intelbras &lt;br&gt;SF 802ASF&lt;/font&gt;" style="text;html=1;resizable=0;autosize=1;align=center;verticalAlign=middle;points=[];fillColor=none;strokeColor=none;rounded=0;" vertex="1" parent="1">
          <mxGeometry x="860" y="1254" width="200" height="40" as="geometry" />
        </mxCell>
        <mxCell id="YF6pKjscoDSc8qck96Aq-57" value="" style="endArrow=none;html=1;" edge="1" parent="1" source="YF6pKjscoDSc8qck96Aq-55" target="YF6pKjscoDSc8qck96Aq-51">
          <mxGeometry width="50" height="50" relative="1" as="geometry">
            <mxPoint x="1010" y="740" as="sourcePoint" />
            <mxPoint x="1060" y="690" as="targetPoint" />
          </mxGeometry>
        </mxCell>
        <mxCell id="YF6pKjscoDSc8qck96Aq-58" value="&lt;font style=&quot;font-size: 30px&quot;&gt;&lt;b&gt;&lt;u&gt;RIEL ENGENHARIA - TOPOLOGIA DE REDE LOGICA&lt;/u&gt;&lt;/b&gt;&lt;/font&gt;" style="text;html=1;resizable=0;autosize=1;align=center;verticalAlign=middle;points=[];fillColor=none;strokeColor=none;rounded=0;" vertex="1" parent="1">
          <mxGeometry x="1350" y="40" width="760" height="30" as="geometry" />
        </mxCell>
        <mxCell id="YF6pKjscoDSc8qck96Aq-59" value="&lt;span style=&quot;font-size: 20px&quot;&gt;HP PRO M402N&lt;br&gt;IP: 192.168.1.144&lt;br&gt;&lt;/span&gt;" style="text;html=1;resizable=0;autosize=1;align=center;verticalAlign=middle;points=[];fillColor=none;strokeColor=none;rounded=0;" vertex="1" parent="1">
          <mxGeometry x="895" y="330" width="170" height="40" as="geometry" />
        </mxCell>
        <mxCell id="YF6pKjscoDSc8qck96Aq-61" value="" style="endArrow=none;html=1;" edge="1" parent="1" target="7-8rVvSdNKjw__y4Cbuu-12">
          <mxGeometry width="50" height="50" relative="1" as="geometry">
            <mxPoint x="1220" y="920" as="sourcePoint" />
            <mxPoint x="480" y="1090" as="targetPoint" />
          </mxGeometry>
        </mxCell>
        <mxCell id="YF6pKjscoDSc8qck96Aq-68" value="" style="fontColor=#0066CC;verticalAlign=top;verticalLabelPosition=bottom;labelPosition=center;align=center;html=1;outlineConnect=0;fillColor=#CCCCCC;strokeColor=#6881B3;gradientColor=none;gradientDirection=north;strokeWidth=2;shape=mxgraph.networks.wireless_hub;" vertex="1" parent="1">
          <mxGeometry x="960" y="70" width="100" height="85" as="geometry" />
        </mxCell>
        <mxCell id="YF6pKjscoDSc8qck96Aq-69" value="&lt;font style=&quot;font-size: 20px&quot;&gt;Roteador TP-LINK WR941N&lt;br&gt;Como Switch&lt;br&gt;IP: 192.168.1.181&lt;br&gt;&lt;/font&gt;" style="text;html=1;resizable=0;autosize=1;align=center;verticalAlign=middle;points=[];fillColor=none;strokeColor=none;rounded=0;" vertex="1" parent="1">
          <mxGeometry x="875" y="170" width="270" height="60" as="geometry" />
        </mxCell>
        <mxCell id="YF6pKjscoDSc8qck96Aq-70" value="" style="fontColor=#0066CC;verticalAlign=top;verticalLabelPosition=bottom;labelPosition=center;align=center;html=1;outlineConnect=0;fillColor=#CCCCCC;strokeColor=#6881B3;gradientColor=none;gradientDirection=north;strokeWidth=2;shape=mxgraph.networks.phone_2;" vertex="1" parent="1">
          <mxGeometry x="1010" y="440" width="100" height="90" as="geometry" />
        </mxCell>
        <mxCell id="YF6pKjscoDSc8qck96Aq-71" value="" style="fontColor=#0066CC;verticalAlign=top;verticalLabelPosition=bottom;labelPosition=center;align=center;html=1;outlineConnect=0;fillColor=#CCCCCC;strokeColor=#6881B3;gradientColor=none;gradientDirection=north;strokeWidth=2;shape=mxgraph.networks.phone_2;" vertex="1" parent="1">
          <mxGeometry x="390" y="295" width="100" height="90" as="geometry" />
        </mxCell>
      </root>
    </mxGraphModel>
  </diagram>
</mxfile>
